<svg width="49" height="63" viewBox="0 0 49 63" fill="none" xmlns="http://www.w3.org/2000/svg">
<path d="M12.0723 62H4.5C2.84315 62 1.5 60.6568 1.5 58.9999V29.9436C1.5 28.7611 2.18027 27.6278 3.33115 27.356C4.99067 26.9642 6.54208 27.1933 9 28C21.4225 31.653 27.4114 30.1165 36.7316 23.1999C36.9083 23.0688 37.1027 22.9532 37.3042 22.8648C41.114 21.1916 43.3272 20.9928 45.9904 22.2015C46.9546 22.6391 47.5 23.649 47.5 24.7078V59C47.5 60.6568 46.1569 62 44.5 62H33.5C31.8431 62 30.5 60.6568 30.5 59V35.4743C30.5 34.0375 29.4825 32.7735 28.0506 32.6559C20.8334 32.0628 17.4892 35.8575 15.646 41.0744C15.5468 41.3553 15.4963 41.6514 15.489 41.9492L15.0714 59.0731C15.0317 60.701 13.7006 62 12.0723 62Z" stroke="white" stroke-width="2"/>
<circle cx="7.5" cy="16.5" r="6.5" stroke="white" stroke-width="2"/>
<circle cx="38.5" cy="9.5" r="8.5" stroke="white" stroke-width="2"/>
</svg>
