<svg width="158" height="157" viewBox="0 0 158 157" fill="none" xmlns="http://www.w3.org/2000/svg">
<path d="M0 7.80103H75.7539V79.9189C75.7539 100.838 58.7958 117.796 37.877 117.796C16.9581 117.796 0 100.838 0 79.9188V7.80103Z" fill="#E192A5"/>
<ellipse cx="117.377" cy="39.0052" rx="41.623" ry="39.0052" fill="#E192A5"/>
<ellipse cx="38.2931" cy="117.796" rx="21.644" ry="20.2827" fill="#12194A"/>
<path d="M159 117.016C159 106.671 154.615 96.7499 146.809 89.435C139.003 82.1201 128.416 78.0106 117.377 78.0106C106.338 78.0106 95.7508 82.1201 87.945 89.435C80.1392 96.7499 75.7539 106.671 75.7539 117.016L117.377 117.016H159Z" fill="#E192A5"/>
<path fill-rule="evenodd" clip-rule="evenodd" d="M111.073 78.4603C102.367 79.7103 94.2493 83.5272 87.9451 89.4349C80.1685 96.7223 75.7869 106.596 75.7542 116.899C84.5818 115.632 92.7991 111.726 99.1335 105.687C106.759 98.4169 111.041 88.6427 111.073 78.4603Z" fill="#12194A"/>
</svg>
